<svg xmlns="http://www.w3.org/2000/svg" viewBox="0 0 806 154" width="806" height="154" font-family="'JetBrains Mono',ui-monospace,monospace" role="img" aria-label="1,120 contributions in the last year">
<rect x="0.5" y="0.5" width="805" height="153" rx="10" fill="#0d1117" stroke="#d2992233"/>
<text x="30" y="20" font-size="11" fill="#8b949e">$ contributions --last-year</text>
<text x="772" y="20" font-size="11" fill="#d29922" text-anchor="end" font-weight="700">1,120 total</text>
<text x="30" y="36" font-size="10" fill="#8b949e">Jul</text>
<text x="72" y="36" font-size="10" fill="#8b949e">Aug</text>
<text x="142" y="36" font-size="10" fill="#8b949e">Sep</text>
<text x="198" y="36" font-size="10" fill="#8b949e">Oct</text>
<text x="254" y="36" font-size="10" fill="#8b949e">Nov</text>
<text x="324" y="36" font-size="10" fill="#8b949e">Dec</text>
<text x="380" y="36" font-size="10" fill="#8b949e">Jan</text>
<text x="436" y="36" font-size="10" fill="#8b949e">Feb</text>
<text x="492" y="36" font-size="10" fill="#8b949e">Mar</text>
<text x="562" y="36" font-size="10" fill="#8b949e">Apr</text>
<text x="618" y="36" font-size="10" fill="#8b949e">May</text>
<text x="688" y="36" font-size="10" fill="#8b949e">Jun</text>
<text x="744" y="36" font-size="10" fill="#8b949e">Jul</text>
<text x="4" y="67" font-size="9" fill="#8b949e">Mon</text>
<text x="4" y="95" font-size="9" fill="#8b949e">Wed</text>
<text x="4" y="123" font-size="9" fill="#8b949e">Fri</text>
<rect x="30" y="44" width="11" height="11" rx="2.5" fill="#7a5c17"/>
<rect x="44" y="44" width="11" height="11" rx="2.5" fill="#7a5c17"/>
<rect x="58" y="44" width="11" height="11" rx="2.5" fill="#161b22"/>
<rect x="72" y="44" width="11" height="11" rx="2.5" fill="#161b22"/>
<rect x="86" y="44" width="11" height="11" rx="2.5" fill="#161b22"/>
<rect x="100" y="44" width="11" height="11" rx="2.5" fill="#161b22"/>
<rect x="114" y="44" width="11" height="11" rx="2.5" fill="#161b22"/>
<rect x="128" y="44" width="11" height="11" rx="2.5" fill="#161b22"/>
<rect x="142" y="44" width="11" height="11" rx="2.5" fill="#161b22"/>
<rect x="156" y="44" width="11" height="11" rx="2.5" fill="#161b22"/>
<rect x="170" y="44" width="11" height="11" rx="2.5" fill="#3d2f10"/>
<rect x="184" y="44" width="11" height="11" rx="2.5" fill="#3d2f10"/>
<rect x="198" y="44" width="11" height="11" rx="2.5" fill="#3d2f10"/>
<rect x="212" y="44" width="11" height="11" rx="2.5" fill="#161b22"/>
<rect x="226" y="44" width="11" height="11" rx="2.5" fill="#3d2f10"/>
<rect x="240" y="44" width="11" height="11" rx="2.5" fill="#3d2f10"/>
<rect x="254" y="44" width="11" height="11" rx="2.5" fill="#161b22"/>
<rect x="268" y="44" width="11" height="11" rx="2.5" fill="#3d2f10"/>
<rect x="282" y="44" width="11" height="11" rx="2.5" fill="#3d2f10"/>
<rect x="296" y="44" width="11" height="11" rx="2.5" fill="#3d2f10"/>
<rect x="310" y="44" width="11" height="11" rx="2.5" fill="#161b22"/>
<rect x="324" y="44" width="11" height="11" rx="2.5" fill="#3d2f10"/>
<rect x="338" y="44" width="11" height="11" rx="2.5" fill="#3d2f10"/>
<rect x="352" y="44" width="11" height="11" rx="2.5" fill="#161b22"/>
<rect x="366" y="44" width="11" height="11" rx="2.5" fill="#161b22"/>
<rect x="380" y="44" width="11" height="11" rx="2.5" fill="#161b22"/>
<rect x="394" y="44" width="11" height="11" rx="2.5" fill="#3d2f10"/>
<rect x="408" y="44" width="11" height="11" rx="2.5" fill="#3d2f10"/>
<rect x="422" y="44" width="11" height="11" rx="2.5" fill="#3d2f10"/>
<rect x="436" y="44" width="11" height="11" rx="2.5" fill="#161b22"/>
<rect x="450" y="44" width="11" height="11" rx="2.5" fill="#b8881f"/>
<rect x="464" y="44" width="11" height="11" rx="2.5" fill="#7a5c17"/>
<rect x="478" y="44" width="11" height="11" rx="2.5" fill="#3d2f10"/>
<rect x="492" y="44" width="11" height="11" rx="2.5" fill="#3d2f10"/>
<rect x="506" y="44" width="11" height="11" rx="2.5" fill="#3d2f10"/>
<rect x="520" y="44" width="11" height="11" rx="2.5" fill="#3d2f10"/>
<rect x="534" y="44" width="11" height="11" rx="2.5" fill="#161b22"/>
<rect x="548" y="44" width="11" height="11" rx="2.5" fill="#161b22"/>
<rect x="562" y="44" width="11" height="11" rx="2.5" fill="#161b22"/>
<rect x="576" y="44" width="11" height="11" rx="2.5" fill="#161b22"/>
<rect x="590" y="44" width="11" height="11" rx="2.5" fill="#f2b829"/>
<rect x="604" y="44" width="11" height="11" rx="2.5" fill="#7a5c17"/>
<rect x="618" y="44" width="11" height="11" rx="2.5" fill="#3d2f10"/>
<rect x="632" y="44" width="11" height="11" rx="2.5" fill="#3d2f10"/>
<rect x="646" y="44" width="11" height="11" rx="2.5" fill="#3d2f10"/>
<rect x="660" y="44" width="11" height="11" rx="2.5" fill="#b8881f"/>
<rect x="674" y="44" width="11" height="11" rx="2.5" fill="#7a5c17"/>
<rect x="688" y="44" width="11" height="11" rx="2.5" fill="#3d2f10"/>
<rect x="702" y="44" width="11" height="11" rx="2.5" fill="#3d2f10"/>
<rect x="716" y="44" width="11" height="11" rx="2.5" fill="#3d2f10"/>
<rect x="730" y="44" width="11" height="11" rx="2.5" fill="#3d2f10"/>
<rect x="744" y="44" width="11" height="11" rx="2.5" fill="#3d2f10"/>
<rect x="758" y="44" width="11" height="11" rx="2.5" fill="#3d2f10"/>
<rect x="30" y="58" width="11" height="11" rx="2.5" fill="#b8881f"/>
<rect x="44" y="58" width="11" height="11" rx="2.5" fill="#7a5c17"/>
<rect x="58" y="58" width="11" height="11" rx="2.5" fill="#161b22"/>
<rect x="72" y="58" width="11" height="11" rx="2.5" fill="#161b22"/>
<rect x="86" y="58" width="11" height="11" rx="2.5" fill="#161b22"/>
<rect x="100" y="58" width="11" height="11" rx="2.5" fill="#161b22"/>
<rect x="114" y="58" width="11" height="11" rx="2.5" fill="#161b22"/>
<rect x="128" y="58" width="11" height="11" rx="2.5" fill="#161b22"/>
<rect x="142" y="58" width="11" height="11" rx="2.5" fill="#161b22"/>
<rect x="156" y="58" width="11" height="11" rx="2.5" fill="#3d2f10"/>
<rect x="170" y="58" width="11" height="11" rx="2.5" fill="#3d2f10"/>
<rect x="184" y="58" width="11" height="11" rx="2.5" fill="#3d2f10"/>
<rect x="198" y="58" width="11" height="11" rx="2.5" fill="#3d2f10"/>
<rect x="212" y="58" width="11" height="11" rx="2.5" fill="#3d2f10"/>
<rect x="226" y="58" width="11" height="11" rx="2.5" fill="#3d2f10"/>
<rect x="240" y="58" width="11" height="11" rx="2.5" fill="#161b22"/>
<rect x="254" y="58" width="11" height="11" rx="2.5" fill="#161b22"/>
<rect x="268" y="58" width="11" height="11" rx="2.5" fill="#3d2f10"/>
<rect x="282" y="58" width="11" height="11" rx="2.5" fill="#3d2f10"/>
<rect x="296" y="58" width="11" height="11" rx="2.5" fill="#3d2f10"/>
<rect x="310" y="58" width="11" height="11" rx="2.5" fill="#3d2f10"/>
<rect x="324" y="58" width="11" height="11" rx="2.5" fill="#7a5c17"/>
<rect x="338" y="58" width="11" height="11" rx="2.5" fill="#3d2f10"/>
<rect x="352" y="58" width="11" height="11" rx="2.5" fill="#3d2f10"/>
<rect x="366" y="58" width="11" height="11" rx="2.5" fill="#3d2f10"/>
<rect x="380" y="58" width="11" height="11" rx="2.5" fill="#3d2f10"/>
<rect x="394" y="58" width="11" height="11" rx="2.5" fill="#b8881f"/>
<rect x="408" y="58" width="11" height="11" rx="2.5" fill="#7a5c17"/>
<rect x="422" y="58" width="11" height="11" rx="2.5" fill="#7a5c17"/>
<rect x="436" y="58" width="11" height="11" rx="2.5" fill="#3d2f10"/>
<rect x="450" y="58" width="11" height="11" rx="2.5" fill="#7a5c17"/>
<rect x="464" y="58" width="11" height="11" rx="2.5" fill="#3d2f10"/>
<rect x="478" y="58" width="11" height="11" rx="2.5" fill="#3d2f10"/>
<rect x="492" y="58" width="11" height="11" rx="2.5" fill="#3d2f10"/>
<rect x="506" y="58" width="11" height="11" rx="2.5" fill="#7a5c17"/>
<rect x="520" y="58" width="11" height="11" rx="2.5" fill="#3d2f10"/>
<rect x="534" y="58" width="11" height="11" rx="2.5" fill="#161b22"/>
<rect x="548" y="58" width="11" height="11" rx="2.5" fill="#161b22"/>
<rect x="562" y="58" width="11" height="11" rx="2.5" fill="#b8881f"/>
<rect x="576" y="58" width="11" height="11" rx="2.5" fill="#161b22"/>
<rect x="590" y="58" width="11" height="11" rx="2.5" fill="#f2b829"/>
<rect x="604" y="58" width="11" height="11" rx="2.5" fill="#b8881f"/>
<rect x="618" y="58" width="11" height="11" rx="2.5" fill="#3d2f10"/>
<rect x="632" y="58" width="11" height="11" rx="2.5" fill="#3d2f10"/>
<rect x="646" y="58" width="11" height="11" rx="2.5" fill="#7a5c17"/>
<rect x="660" y="58" width="11" height="11" rx="2.5" fill="#161b22"/>
<rect x="674" y="58" width="11" height="11" rx="2.5" fill="#f2b829"/>
<rect x="688" y="58" width="11" height="11" rx="2.5" fill="#3d2f10"/>
<rect x="702" y="58" width="11" height="11" rx="2.5" fill="#7a5c17"/>
<rect x="716" y="58" width="11" height="11" rx="2.5" fill="#7a5c17"/>
<rect x="730" y="58" width="11" height="11" rx="2.5" fill="#3d2f10"/>
<rect x="744" y="58" width="11" height="11" rx="2.5" fill="#7a5c17"/>
<rect x="30" y="72" width="11" height="11" rx="2.5" fill="#3d2f10"/>
<rect x="44" y="72" width="11" height="11" rx="2.5" fill="#3d2f10"/>
<rect x="58" y="72" width="11" height="11" rx="2.5" fill="#161b22"/>
<rect x="72" y="72" width="11" height="11" rx="2.5" fill="#161b22"/>
<rect x="86" y="72" width="11" height="11" rx="2.5" fill="#161b22"/>
<rect x="100" y="72" width="11" height="11" rx="2.5" fill="#161b22"/>
<rect x="114" y="72" width="11" height="11" rx="2.5" fill="#161b22"/>
<rect x="128" y="72" width="11" height="11" rx="2.5" fill="#161b22"/>
<rect x="142" y="72" width="11" height="11" rx="2.5" fill="#161b22"/>
<rect x="156" y="72" width="11" height="11" rx="2.5" fill="#7a5c17"/>
<rect x="170" y="72" width="11" height="11" rx="2.5" fill="#3d2f10"/>
<rect x="184" y="72" width="11" height="11" rx="2.5" fill="#3d2f10"/>
<rect x="198" y="72" width="11" height="11" rx="2.5" fill="#161b22"/>
<rect x="212" y="72" width="11" height="11" rx="2.5" fill="#161b22"/>
<rect x="226" y="72" width="11" height="11" rx="2.5" fill="#3d2f10"/>
<rect x="240" y="72" width="11" height="11" rx="2.5" fill="#3d2f10"/>
<rect x="254" y="72" width="11" height="11" rx="2.5" fill="#7a5c17"/>
<rect x="268" y="72" width="11" height="11" rx="2.5" fill="#161b22"/>
<rect x="282" y="72" width="11" height="11" rx="2.5" fill="#3d2f10"/>
<rect x="296" y="72" width="11" height="11" rx="2.5" fill="#161b22"/>
<rect x="310" y="72" width="11" height="11" rx="2.5" fill="#3d2f10"/>
<rect x="324" y="72" width="11" height="11" rx="2.5" fill="#3d2f10"/>
<rect x="338" y="72" width="11" height="11" rx="2.5" fill="#3d2f10"/>
<rect x="352" y="72" width="11" height="11" rx="2.5" fill="#3d2f10"/>
<rect x="366" y="72" width="11" height="11" rx="2.5" fill="#161b22"/>
<rect x="380" y="72" width="11" height="11" rx="2.5" fill="#3d2f10"/>
<rect x="394" y="72" width="11" height="11" rx="2.5" fill="#3d2f10"/>
<rect x="408" y="72" width="11" height="11" rx="2.5" fill="#3d2f10"/>
<rect x="422" y="72" width="11" height="11" rx="2.5" fill="#b8881f"/>
<rect x="436" y="72" width="11" height="11" rx="2.5" fill="#b8881f"/>
<rect x="450" y="72" width="11" height="11" rx="2.5" fill="#7a5c17"/>
<rect x="464" y="72" width="11" height="11" rx="2.5" fill="#3d2f10"/>
<rect x="478" y="72" width="11" height="11" rx="2.5" fill="#3d2f10"/>
<rect x="492" y="72" width="11" height="11" rx="2.5" fill="#7a5c17"/>
<rect x="506" y="72" width="11" height="11" rx="2.5" fill="#7a5c17"/>
<rect x="520" y="72" width="11" height="11" rx="2.5" fill="#3d2f10"/>
<rect x="534" y="72" width="11" height="11" rx="2.5" fill="#161b22"/>
<rect x="548" y="72" width="11" height="11" rx="2.5" fill="#161b22"/>
<rect x="562" y="72" width="11" height="11" rx="2.5" fill="#161b22"/>
<rect x="576" y="72" width="11" height="11" rx="2.5" fill="#161b22"/>
<rect x="590" y="72" width="11" height="11" rx="2.5" fill="#f2b829"/>
<rect x="604" y="72" width="11" height="11" rx="2.5" fill="#3d2f10"/>
<rect x="618" y="72" width="11" height="11" rx="2.5" fill="#7a5c17"/>
<rect x="632" y="72" width="11" height="11" rx="2.5" fill="#f2b829"/>
<rect x="646" y="72" width="11" height="11" rx="2.5" fill="#7a5c17"/>
<rect x="660" y="72" width="11" height="11" rx="2.5" fill="#161b22"/>
<rect x="674" y="72" width="11" height="11" rx="2.5" fill="#3d2f10"/>
<rect x="688" y="72" width="11" height="11" rx="2.5" fill="#3d2f10"/>
<rect x="702" y="72" width="11" height="11" rx="2.5" fill="#161b22"/>
<rect x="716" y="72" width="11" height="11" rx="2.5" fill="#3d2f10"/>
<rect x="730" y="72" width="11" height="11" rx="2.5" fill="#3d2f10"/>
<rect x="744" y="72" width="11" height="11" rx="2.5" fill="#b8881f"/>
<rect x="30" y="86" width="11" height="11" rx="2.5" fill="#b8881f"/>
<rect x="44" y="86" width="11" height="11" rx="2.5" fill="#161b22"/>
<rect x="58" y="86" width="11" height="11" rx="2.5" fill="#161b22"/>
<rect x="72" y="86" width="11" height="11" rx="2.5" fill="#161b22"/>
<rect x="86" y="86" width="11" height="11" rx="2.5" fill="#161b22"/>
<rect x="100" y="86" width="11" height="11" rx="2.5" fill="#161b22"/>
<rect x="114" y="86" width="11" height="11" rx="2.5" fill="#161b22"/>
<rect x="128" y="86" width="11" height="11" rx="2.5" fill="#161b22"/>
<rect x="142" y="86" width="11" height="11" rx="2.5" fill="#7a5c17"/>
<rect x="156" y="86" width="11" height="11" rx="2.5" fill="#7a5c17"/>
<rect x="170" y="86" width="11" height="11" rx="2.5" fill="#b8881f"/>
<rect x="184" y="86" width="11" height="11" rx="2.5" fill="#3d2f10"/>
<rect x="198" y="86" width="11" height="11" rx="2.5" fill="#161b22"/>
<rect x="212" y="86" width="11" height="11" rx="2.5" fill="#161b22"/>
<rect x="226" y="86" width="11" height="11" rx="2.5" fill="#161b22"/>
<rect x="240" y="86" width="11" height="11" rx="2.5" fill="#161b22"/>
<rect x="254" y="86" width="11" height="11" rx="2.5" fill="#161b22"/>
<rect x="268" y="86" width="11" height="11" rx="2.5" fill="#161b22"/>
<rect x="282" y="86" width="11" height="11" rx="2.5" fill="#161b22"/>
<rect x="296" y="86" width="11" height="11" rx="2.5" fill="#161b22"/>
<rect x="310" y="86" width="11" height="11" rx="2.5" fill="#161b22"/>
<rect x="324" y="86" width="11" height="11" rx="2.5" fill="#161b22"/>
<rect x="338" y="86" width="11" height="11" rx="2.5" fill="#3d2f10"/>
<rect x="352" y="86" width="11" height="11" rx="2.5" fill="#3d2f10"/>
<rect x="366" y="86" width="11" height="11" rx="2.5" fill="#3d2f10"/>
<rect x="380" y="86" width="11" height="11" rx="2.5" fill="#161b22"/>
<rect x="394" y="86" width="11" height="11" rx="2.5" fill="#7a5c17"/>
<rect x="408" y="86" width="11" height="11" rx="2.5" fill="#3d2f10"/>
<rect x="422" y="86" width="11" height="11" rx="2.5" fill="#b8881f"/>
<rect x="436" y="86" width="11" height="11" rx="2.5" fill="#3d2f10"/>
<rect x="450" y="86" width="11" height="11" rx="2.5" fill="#b8881f"/>
<rect x="464" y="86" width="11" height="11" rx="2.5" fill="#3d2f10"/>
<rect x="478" y="86" width="11" height="11" rx="2.5" fill="#3d2f10"/>
<rect x="492" y="86" width="11" height="11" rx="2.5" fill="#3d2f10"/>
<rect x="506" y="86" width="11" height="11" rx="2.5" fill="#7a5c17"/>
<rect x="520" y="86" width="11" height="11" rx="2.5" fill="#7a5c17"/>
<rect x="534" y="86" width="11" height="11" rx="2.5" fill="#161b22"/>
<rect x="548" y="86" width="11" height="11" rx="2.5" fill="#161b22"/>
<rect x="562" y="86" width="11" height="11" rx="2.5" fill="#161b22"/>
<rect x="576" y="86" width="11" height="11" rx="2.5" fill="#f2b829"/>
<rect x="590" y="86" width="11" height="11" rx="2.5" fill="#3d2f10"/>
<rect x="604" y="86" width="11" height="11" rx="2.5" fill="#161b22"/>
<rect x="618" y="86" width="11" height="11" rx="2.5" fill="#7a5c17"/>
<rect x="632" y="86" width="11" height="11" rx="2.5" fill="#3d2f10"/>
<rect x="646" y="86" width="11" height="11" rx="2.5" fill="#3d2f10"/>
<rect x="660" y="86" width="11" height="11" rx="2.5" fill="#161b22"/>
<rect x="674" y="86" width="11" height="11" rx="2.5" fill="#3d2f10"/>
<rect x="688" y="86" width="11" height="11" rx="2.5" fill="#7a5c17"/>
<rect x="702" y="86" width="11" height="11" rx="2.5" fill="#b8881f"/>
<rect x="716" y="86" width="11" height="11" rx="2.5" fill="#b8881f"/>
<rect x="730" y="86" width="11" height="11" rx="2.5" fill="#3d2f10"/>
<rect x="744" y="86" width="11" height="11" rx="2.5" fill="#3d2f10"/>
<rect x="30" y="100" width="11" height="11" rx="2.5" fill="#3d2f10"/>
<rect x="44" y="100" width="11" height="11" rx="2.5" fill="#161b22"/>
<rect x="58" y="100" width="11" height="11" rx="2.5" fill="#161b22"/>
<rect x="72" y="100" width="11" height="11" rx="2.5" fill="#161b22"/>
<rect x="86" y="100" width="11" height="11" rx="2.5" fill="#161b22"/>
<rect x="100" y="100" width="11" height="11" rx="2.5" fill="#161b22"/>
<rect x="114" y="100" width="11" height="11" rx="2.5" fill="#161b22"/>
<rect x="128" y="100" width="11" height="11" rx="2.5" fill="#161b22"/>
<rect x="142" y="100" width="11" height="11" rx="2.5" fill="#b8881f"/>
<rect x="156" y="100" width="11" height="11" rx="2.5" fill="#3d2f10"/>
<rect x="170" y="100" width="11" height="11" rx="2.5" fill="#7a5c17"/>
<rect x="184" y="100" width="11" height="11" rx="2.5" fill="#3d2f10"/>
<rect x="198" y="100" width="11" height="11" rx="2.5" fill="#161b22"/>
<rect x="212" y="100" width="11" height="11" rx="2.5" fill="#3d2f10"/>
<rect x="226" y="100" width="11" height="11" rx="2.5" fill="#161b22"/>
<rect x="240" y="100" width="11" height="11" rx="2.5" fill="#3d2f10"/>
<rect x="254" y="100" width="11" height="11" rx="2.5" fill="#7a5c17"/>
<rect x="268" y="100" width="11" height="11" rx="2.5" fill="#3d2f10"/>
<rect x="282" y="100" width="11" height="11" rx="2.5" fill="#161b22"/>
<rect x="296" y="100" width="11" height="11" rx="2.5" fill="#3d2f10"/>
<rect x="310" y="100" width="11" height="11" rx="2.5" fill="#161b22"/>
<rect x="324" y="100" width="11" height="11" rx="2.5" fill="#3d2f10"/>
<rect x="338" y="100" width="11" height="11" rx="2.5" fill="#7a5c17"/>
<rect x="352" y="100" width="11" height="11" rx="2.5" fill="#3d2f10"/>
<rect x="366" y="100" width="11" height="11" rx="2.5" fill="#161b22"/>
<rect x="380" y="100" width="11" height="11" rx="2.5" fill="#161b22"/>
<rect x="394" y="100" width="11" height="11" rx="2.5" fill="#7a5c17"/>
<rect x="408" y="100" width="11" height="11" rx="2.5" fill="#3d2f10"/>
<rect x="422" y="100" width="11" height="11" rx="2.5" fill="#3d2f10"/>
<rect x="436" y="100" width="11" height="11" rx="2.5" fill="#3d2f10"/>
<rect x="450" y="100" width="11" height="11" rx="2.5" fill="#b8881f"/>
<rect x="464" y="100" width="11" height="11" rx="2.5" fill="#3d2f10"/>
<rect x="478" y="100" width="11" height="11" rx="2.5" fill="#3d2f10"/>
<rect x="492" y="100" width="11" height="11" rx="2.5" fill="#7a5c17"/>
<rect x="506" y="100" width="11" height="11" rx="2.5" fill="#3d2f10"/>
<rect x="520" y="100" width="11" height="11" rx="2.5" fill="#b8881f"/>
<rect x="534" y="100" width="11" height="11" rx="2.5" fill="#161b22"/>
<rect x="548" y="100" width="11" height="11" rx="2.5" fill="#161b22"/>
<rect x="562" y="100" width="11" height="11" rx="2.5" fill="#161b22"/>
<rect x="576" y="100" width="11" height="11" rx="2.5" fill="#3d2f10"/>
<rect x="590" y="100" width="11" height="11" rx="2.5" fill="#7a5c17"/>
<rect x="604" y="100" width="11" height="11" rx="2.5" fill="#3d2f10"/>
<rect x="618" y="100" width="11" height="11" rx="2.5" fill="#3d2f10"/>
<rect x="632" y="100" width="11" height="11" rx="2.5" fill="#3d2f10"/>
<rect x="646" y="100" width="11" height="11" rx="2.5" fill="#3d2f10"/>
<rect x="660" y="100" width="11" height="11" rx="2.5" fill="#7a5c17"/>
<rect x="674" y="100" width="11" height="11" rx="2.5" fill="#3d2f10"/>
<rect x="688" y="100" width="11" height="11" rx="2.5" fill="#161b22"/>
<rect x="702" y="100" width="11" height="11" rx="2.5" fill="#3d2f10"/>
<rect x="716" y="100" width="11" height="11" rx="2.5" fill="#3d2f10"/>
<rect x="730" y="100" width="11" height="11" rx="2.5" fill="#7a5c17"/>
<rect x="744" y="100" width="11" height="11" rx="2.5" fill="#b8881f"/>
<rect x="30" y="114" width="11" height="11" rx="2.5" fill="#3d2f10"/>
<rect x="44" y="114" width="11" height="11" rx="2.5" fill="#161b22"/>
<rect x="58" y="114" width="11" height="11" rx="2.5" fill="#161b22"/>
<rect x="72" y="114" width="11" height="11" rx="2.5" fill="#161b22"/>
<rect x="86" y="114" width="11" height="11" rx="2.5" fill="#161b22"/>
<rect x="100" y="114" width="11" height="11" rx="2.5" fill="#161b22"/>
<rect x="114" y="114" width="11" height="11" rx="2.5" fill="#161b22"/>
<rect x="128" y="114" width="11" height="11" rx="2.5" fill="#161b22"/>
<rect x="142" y="114" width="11" height="11" rx="2.5" fill="#b8881f"/>
<rect x="156" y="114" width="11" height="11" rx="2.5" fill="#3d2f10"/>
<rect x="170" y="114" width="11" height="11" rx="2.5" fill="#3d2f10"/>
<rect x="184" y="114" width="11" height="11" rx="2.5" fill="#3d2f10"/>
<rect x="198" y="114" width="11" height="11" rx="2.5" fill="#3d2f10"/>
<rect x="212" y="114" width="11" height="11" rx="2.5" fill="#3d2f10"/>
<rect x="226" y="114" width="11" height="11" rx="2.5" fill="#161b22"/>
<rect x="240" y="114" width="11" height="11" rx="2.5" fill="#161b22"/>
<rect x="254" y="114" width="11" height="11" rx="2.5" fill="#161b22"/>
<rect x="268" y="114" width="11" height="11" rx="2.5" fill="#3d2f10"/>
<rect x="282" y="114" width="11" height="11" rx="2.5" fill="#161b22"/>
<rect x="296" y="114" width="11" height="11" rx="2.5" fill="#3d2f10"/>
<rect x="310" y="114" width="11" height="11" rx="2.5" fill="#7a5c17"/>
<rect x="324" y="114" width="11" height="11" rx="2.5" fill="#3d2f10"/>
<rect x="338" y="114" width="11" height="11" rx="2.5" fill="#161b22"/>
<rect x="352" y="114" width="11" height="11" rx="2.5" fill="#161b22"/>
<rect x="366" y="114" width="11" height="11" rx="2.5" fill="#161b22"/>
<rect x="380" y="114" width="11" height="11" rx="2.5" fill="#161b22"/>
<rect x="394" y="114" width="11" height="11" rx="2.5" fill="#3d2f10"/>
<rect x="408" y="114" width="11" height="11" rx="2.5" fill="#3d2f10"/>
<rect x="422" y="114" width="11" height="11" rx="2.5" fill="#b8881f"/>
<rect x="436" y="114" width="11" height="11" rx="2.5" fill="#3d2f10"/>
<rect x="450" y="114" width="11" height="11" rx="2.5" fill="#3d2f10"/>
<rect x="464" y="114" width="11" height="11" rx="2.5" fill="#7a5c17"/>
<rect x="478" y="114" width="11" height="11" rx="2.5" fill="#3d2f10"/>
<rect x="492" y="114" width="11" height="11" rx="2.5" fill="#7a5c17"/>
<rect x="506" y="114" width="11" height="11" rx="2.5" fill="#b8881f"/>
<rect x="520" y="114" width="11" height="11" rx="2.5" fill="#b8881f"/>
<rect x="534" y="114" width="11" height="11" rx="2.5" fill="#161b22"/>
<rect x="548" y="114" width="11" height="11" rx="2.5" fill="#161b22"/>
<rect x="562" y="114" width="11" height="11" rx="2.5" fill="#161b22"/>
<rect x="576" y="114" width="11" height="11" rx="2.5" fill="#3d2f10"/>
<rect x="590" y="114" width="11" height="11" rx="2.5" fill="#f2b829"/>
<rect x="604" y="114" width="11" height="11" rx="2.5" fill="#3d2f10"/>
<rect x="618" y="114" width="11" height="11" rx="2.5" fill="#7a5c17"/>
<rect x="632" y="114" width="11" height="11" rx="2.5" fill="#7a5c17"/>
<rect x="646" y="114" width="11" height="11" rx="2.5" fill="#3d2f10"/>
<rect x="660" y="114" width="11" height="11" rx="2.5" fill="#161b22"/>
<rect x="674" y="114" width="11" height="11" rx="2.5" fill="#3d2f10"/>
<rect x="688" y="114" width="11" height="11" rx="2.5" fill="#3d2f10"/>
<rect x="702" y="114" width="11" height="11" rx="2.5" fill="#7a5c17"/>
<rect x="716" y="114" width="11" height="11" rx="2.5" fill="#3d2f10"/>
<rect x="730" y="114" width="11" height="11" rx="2.5" fill="#7a5c17"/>
<rect x="744" y="114" width="11" height="11" rx="2.5" fill="#3d2f10"/>
<rect x="30" y="128" width="11" height="11" rx="2.5" fill="#f2b829"/>
<rect x="44" y="128" width="11" height="11" rx="2.5" fill="#161b22"/>
<rect x="58" y="128" width="11" height="11" rx="2.5" fill="#161b22"/>
<rect x="72" y="128" width="11" height="11" rx="2.5" fill="#161b22"/>
<rect x="86" y="128" width="11" height="11" rx="2.5" fill="#161b22"/>
<rect x="100" y="128" width="11" height="11" rx="2.5" fill="#161b22"/>
<rect x="114" y="128" width="11" height="11" rx="2.5" fill="#161b22"/>
<rect x="128" y="128" width="11" height="11" rx="2.5" fill="#161b22"/>
<rect x="142" y="128" width="11" height="11" rx="2.5" fill="#b8881f"/>
<rect x="156" y="128" width="11" height="11" rx="2.5" fill="#7a5c17"/>
<rect x="170" y="128" width="11" height="11" rx="2.5" fill="#7a5c17"/>
<rect x="184" y="128" width="11" height="11" rx="2.5" fill="#7a5c17"/>
<rect x="198" y="128" width="11" height="11" rx="2.5" fill="#161b22"/>
<rect x="212" y="128" width="11" height="11" rx="2.5" fill="#3d2f10"/>
<rect x="226" y="128" width="11" height="11" rx="2.5" fill="#161b22"/>
<rect x="240" y="128" width="11" height="11" rx="2.5" fill="#3d2f10"/>
<rect x="254" y="128" width="11" height="11" rx="2.5" fill="#3d2f10"/>
<rect x="268" y="128" width="11" height="11" rx="2.5" fill="#3d2f10"/>
<rect x="282" y="128" width="11" height="11" rx="2.5" fill="#161b22"/>
<rect x="296" y="128" width="11" height="11" rx="2.5" fill="#3d2f10"/>
<rect x="310" y="128" width="11" height="11" rx="2.5" fill="#b8881f"/>
<rect x="324" y="128" width="11" height="11" rx="2.5" fill="#3d2f10"/>
<rect x="338" y="128" width="11" height="11" rx="2.5" fill="#161b22"/>
<rect x="352" y="128" width="11" height="11" rx="2.5" fill="#161b22"/>
<rect x="366" y="128" width="11" height="11" rx="2.5" fill="#3d2f10"/>
<rect x="380" y="128" width="11" height="11" rx="2.5" fill="#7a5c17"/>
<rect x="394" y="128" width="11" height="11" rx="2.5" fill="#3d2f10"/>
<rect x="408" y="128" width="11" height="11" rx="2.5" fill="#7a5c17"/>
<rect x="422" y="128" width="11" height="11" rx="2.5" fill="#3d2f10"/>
<rect x="436" y="128" width="11" height="11" rx="2.5" fill="#7a5c17"/>
<rect x="450" y="128" width="11" height="11" rx="2.5" fill="#3d2f10"/>
<rect x="464" y="128" width="11" height="11" rx="2.5" fill="#3d2f10"/>
<rect x="478" y="128" width="11" height="11" rx="2.5" fill="#3d2f10"/>
<rect x="492" y="128" width="11" height="11" rx="2.5" fill="#3d2f10"/>
<rect x="506" y="128" width="11" height="11" rx="2.5" fill="#3d2f10"/>
<rect x="520" y="128" width="11" height="11" rx="2.5" fill="#161b22"/>
<rect x="534" y="128" width="11" height="11" rx="2.5" fill="#161b22"/>
<rect x="548" y="128" width="11" height="11" rx="2.5" fill="#161b22"/>
<rect x="562" y="128" width="11" height="11" rx="2.5" fill="#161b22"/>
<rect x="576" y="128" width="11" height="11" rx="2.5" fill="#b8881f"/>
<rect x="590" y="128" width="11" height="11" rx="2.5" fill="#7a5c17"/>
<rect x="604" y="128" width="11" height="11" rx="2.5" fill="#3d2f10"/>
<rect x="618" y="128" width="11" height="11" rx="2.5" fill="#3d2f10"/>
<rect x="632" y="128" width="11" height="11" rx="2.5" fill="#7a5c17"/>
<rect x="646" y="128" width="11" height="11" rx="2.5" fill="#7a5c17"/>
<rect x="660" y="128" width="11" height="11" rx="2.5" fill="#161b22"/>
<rect x="674" y="128" width="11" height="11" rx="2.5" fill="#3d2f10"/>
<rect x="688" y="128" width="11" height="11" rx="2.5" fill="#7a5c17"/>
<rect x="702" y="128" width="11" height="11" rx="2.5" fill="#3d2f10"/>
<rect x="716" y="128" width="11" height="11" rx="2.5" fill="#3d2f10"/>
<rect x="730" y="128" width="11" height="11" rx="2.5" fill="#3d2f10"/>
<rect x="744" y="128" width="11" height="11" rx="2.5" fill="#f2b829"/>
<text x="645" y="143" font-size="9" fill="#8b949e">Less</text>
<rect x="675" y="134" width="9" height="9" rx="2" fill="#161b22"/>
<rect x="685" y="134" width="9" height="9" rx="2" fill="#3d2f10"/>
<rect x="695" y="134" width="9" height="9" rx="2" fill="#7a5c17"/>
<rect x="705" y="134" width="9" height="9" rx="2" fill="#b8881f"/>
<rect x="715" y="134" width="9" height="9" rx="2" fill="#f2b829"/>
<text x="729" y="143" font-size="9" fill="#8b949e">More</text>
</svg>